<?xml version="1.0" encoding="UTF-8" standalone="no"?>
<!DOCTYPE svg PUBLIC "-//W3C//DTD SVG 1.1//EN"
 "http://www.w3.org/Graphics/SVG/1.1/DTD/svg11.dtd">
<!-- Generated by graphviz version 2.36.0 (20140111.2315)
 -->
<!-- Title: g Pages: 1 -->
<svg width="1080pt" height="1074pt"
 viewBox="0.00 0.00 1080.00 1074.15" xmlns="http://www.w3.org/2000/svg" xmlns:xlink="http://www.w3.org/1999/xlink">
<g id="graph0" class="graph" transform="scale(0.969489 0.969489) rotate(0) translate(4 1103.95)">
<title>g</title>
<polygon fill="white" stroke="none" points="-4,4 -4,-1103.95 1109.99,-1103.95 1109.99,4 -4,4"/>
<g id="clust1" class="cluster"><title>cluster_0</title>
<polygon fill="lightgrey" stroke="black" points="34.3753,-13.256 34.3753,-569.464 727.438,-569.464 727.438,-13.256 34.3753,-13.256"/>
<text text-anchor="middle" x="380.907" y="-554.264" font-family="Times,serif" font-size="14.00">Lower Division</text>
</g>
<g id="clust2" class="cluster"><title>cluster_1</title>
<polygon fill="lightgrey" stroke="black" points="267.286,-211.7 267.286,-1099.95 899.631,-1099.95 899.631,-211.7 267.286,-211.7"/>
<text text-anchor="middle" x="583.459" y="-1084.75" font-family="Times,serif" font-size="14.00">Upper Division</text>
</g>
<g id="clust3" class="cluster"><title>cluster_2</title>
<polygon fill="lightgrey" stroke="black" points="0,-0 0,-1093.84 1105.99,-1093.84 1105.99,-0 0,-0"/>
<text text-anchor="middle" x="552.995" y="-1078.64" font-family="Times,serif" font-size="14.00">Graduate</text>
</g>
<!-- 61BL -->
<g id="node1" class="node"><title>61BL</title>
<ellipse fill="lightgrey" stroke="black" cx="656.187" cy="-473.737" rx="31.3957" ry="18"/>
<text text-anchor="middle" x="656.187" y="-470.037" font-family="Times,serif" font-size="14.00">61BL</text>
</g>
<!-- 61A -->
<g id="node2" class="node"><title>61A</title>
<ellipse fill="lightgrey" stroke="black" cx="577.395" cy="-454.828" rx="27" ry="18"/>
<text text-anchor="middle" x="577.395" y="-451.128" font-family="Times,serif" font-size="14.00">61A</text>
</g>
<!-- 61BL&#45;&gt;61A -->
<g id="edge1" class="edge"><title>61BL&#45;&gt;61A</title>
<path fill="none" stroke="black" d="M627.295,-466.804C622.549,-465.665 617.583,-464.473 612.702,-463.302"/>
<polygon fill="black" stroke="black" points="613.44,-459.879 602.9,-460.949 611.807,-466.686 613.44,-459.879"/>
</g>
<!-- 47B -->
<g id="node3" class="node"><title>47B</title>
<ellipse fill="lightgrey" stroke="black" cx="61.3753" cy="-56.1204" rx="27" ry="18"/>
<text text-anchor="middle" x="61.3753" y="-52.4204" font-family="Times,serif" font-size="14.00">47B</text>
</g>
<!-- 9G -->
<g id="node4" class="node"><title>9G</title>
<ellipse fill="lightgrey" stroke="black" cx="413.98" cy="-335.571" rx="27" ry="18"/>
<text text-anchor="middle" x="413.98" y="-331.871" font-family="Times,serif" font-size="14.00">9G</text>
</g>
<!-- 47B&#45;&gt;9G -->
<g id="edge2" class="edge"><title>47B&#45;&gt;9G</title>
<path fill="none" stroke="black" d="M78.861,-69.9784C136.43,-115.604 320.243,-261.281 388.309,-315.226"/>
<polygon fill="black" stroke="black" points="386.378,-318.161 396.389,-321.629 390.726,-312.675 386.378,-318.161"/>
</g>
<!-- 9G&#45;&gt;61A -->
<g id="edge10" class="edge"><title>9G&#45;&gt;61A</title>
<path fill="none" stroke="black" d="M432.408,-349.019C461.219,-370.045 517.075,-410.808 550.419,-435.142"/>
<polygon fill="black" stroke="black" points="548.642,-438.178 558.783,-441.246 552.769,-432.524 548.642,-438.178"/>
</g>
<!-- 9C -->
<g id="node6" class="node"><title>9C</title>
<ellipse fill="lightgrey" stroke="black" cx="459.649" cy="-213.031" rx="27" ry="18"/>
<text text-anchor="middle" x="459.649" y="-209.331" font-family="Times,serif" font-size="14.00">9C</text>
</g>
<!-- 9G&#45;&gt;9C -->
<g id="edge8" class="edge"><title>9G&#45;&gt;9C</title>
<path fill="none" stroke="black" d="M420.523,-318.014C428.12,-297.631 440.735,-263.78 449.582,-240.041"/>
<polygon fill="black" stroke="black" points="452.905,-241.148 453.118,-230.555 446.346,-238.704 452.905,-241.148"/>
</g>
<!-- 9F -->
<g id="node11" class="node"><title>9F</title>
<ellipse fill="lightgrey" stroke="black" cx="524.72" cy="-350.124" rx="27" ry="18"/>
<text text-anchor="middle" x="524.72" y="-346.424" font-family="Times,serif" font-size="14.00">9F</text>
</g>
<!-- 9G&#45;&gt;9F -->
<g id="edge9" class="edge"><title>9G&#45;&gt;9F</title>
<path fill="none" stroke="black" d="M440.505,-339.057C454.646,-340.915 472.27,-343.231 487.735,-345.264"/>
<polygon fill="black" stroke="black" points="487.657,-348.783 498.028,-346.616 488.569,-341.843 487.657,-348.783"/>
</g>
<!-- 47C -->
<g id="node5" class="node"><title>47C</title>
<ellipse fill="lightgrey" stroke="black" cx="336.732" cy="-31.256" rx="27" ry="18"/>
<text text-anchor="middle" x="336.732" y="-27.556" font-family="Times,serif" font-size="14.00">47C</text>
</g>
<!-- 47C&#45;&gt;9C -->
<g id="edge3" class="edge"><title>47C&#45;&gt;9C</title>
<path fill="none" stroke="black" d="M347.857,-47.708C369.467,-79.6664 417.235,-150.308 442.772,-188.073"/>
<polygon fill="black" stroke="black" points="439.96,-190.162 448.46,-196.485 445.758,-186.241 439.96,-190.162"/>
</g>
<!-- 9C&#45;&gt;61A -->
<g id="edge6" class="edge"><title>9C&#45;&gt;61A</title>
<path fill="none" stroke="black" d="M473.729,-228.583C494.731,-252.721 533.869,-301.524 553.319,-350.298 563.233,-375.159 569.603,-405.051 573.285,-426.49"/>
<polygon fill="black" stroke="black" points="569.864,-427.259 574.924,-436.567 576.773,-426.135 569.864,-427.259"/>
</g>
<!-- 47A -->
<g id="node7" class="node"><title>47A</title>
<ellipse fill="lightgrey" stroke="black" cx="493.601" cy="-442.544" rx="27" ry="18"/>
<text text-anchor="middle" x="493.601" y="-438.844" font-family="Times,serif" font-size="14.00">47A</text>
</g>
<!-- 61B -->
<g id="node8" class="node"><title>61B</title>
<ellipse fill="lightgrey" stroke="black" cx="624.396" cy="-551.464" rx="27" ry="18"/>
<text text-anchor="middle" x="624.396" y="-547.764" font-family="Times,serif" font-size="14.00">61B</text>
</g>
<!-- 47A&#45;&gt;61B -->
<g id="edge4" class="edge"><title>47A&#45;&gt;61B</title>
<path fill="none" stroke="black" d="M510.7,-456.783C533.319,-475.619 573.354,-508.958 599.376,-530.629"/>
<polygon fill="black" stroke="black" points="597.369,-533.511 607.293,-537.221 601.848,-528.132 597.369,-533.511"/>
</g>
<!-- 9D -->
<g id="node9" class="node"><title>9D</title>
<ellipse fill="lightgrey" stroke="black" cx="267.431" cy="-272.51" rx="27" ry="18"/>
<text text-anchor="middle" x="267.431" y="-268.81" font-family="Times,serif" font-size="14.00">9D</text>
</g>
<!-- 47A&#45;&gt;9D -->
<g id="edge5" class="edge"><title>47A&#45;&gt;9D</title>
<path fill="none" stroke="black" d="M475.474,-428.917C435.608,-398.945 340.172,-327.197 293.722,-292.276"/>
<polygon fill="black" stroke="black" points="295.74,-289.414 285.644,-286.202 291.534,-295.009 295.74,-289.414"/>
</g>
<!-- 61B&#45;&gt;61A -->
<g id="edge12" class="edge"><title>61B&#45;&gt;61A</title>
<path fill="none" stroke="black" d="M615.994,-534.188C608.842,-519.484 598.455,-498.129 590.258,-481.275"/>
<polygon fill="black" stroke="black" points="593.246,-479.417 585.725,-471.955 586.952,-482.479 593.246,-479.417"/>
</g>
<!-- 9E -->
<g id="node10" class="node"><title>9E</title>
<ellipse fill="lightgrey" stroke="black" cx="700.438" cy="-258.342" rx="27" ry="18"/>
<text text-anchor="middle" x="700.438" y="-254.642" font-family="Times,serif" font-size="14.00">9E</text>
</g>
<!-- 9E&#45;&gt;61A -->
<g id="edge7" class="edge"><title>9E&#45;&gt;61A</title>
<path fill="none" stroke="black" d="M695.313,-276.457C687.204,-302.783 669.427,-352.194 641.684,-386.374 628.543,-402.564 612.486,-419.664 599.706,-432.723"/>
<polygon fill="black" stroke="black" points="597.146,-430.334 592.608,-439.907 602.126,-435.254 597.146,-430.334"/>
</g>
<!-- 9F&#45;&gt;61A -->
<g id="edge11" class="edge"><title>9F&#45;&gt;61A</title>
<path fill="none" stroke="black" d="M533.418,-367.414C541.768,-384.01 554.494,-409.306 564.111,-428.424"/>
<polygon fill="black" stroke="black" points="561.063,-430.153 568.684,-437.513 567.316,-427.007 561.063,-430.153"/>
</g>
<!-- 61C -->
<g id="node12" class="node"><title>61C</title>
<ellipse fill="lightgrey" stroke="black" cx="554.022" cy="-524.453" rx="27" ry="18"/>
<text text-anchor="middle" x="554.022" y="-520.753" font-family="Times,serif" font-size="14.00">61C</text>
</g>
<!-- 61C&#45;&gt;61BL -->
<g id="edge15" class="edge"><title>61C&#45;&gt;61BL</title>
<path fill="none" stroke="black" d="M575.689,-513.697C589.464,-506.859 607.57,-497.871 623.12,-490.152"/>
<polygon fill="black" stroke="black" points="625.01,-493.121 632.411,-485.54 621.898,-486.851 625.01,-493.121"/>
</g>
<!-- 61C&#45;&gt;61A -->
<g id="edge13" class="edge"><title>61C&#45;&gt;61A</title>
<path fill="none" stroke="black" d="M559.92,-506.884C562.42,-499.437 565.392,-490.583 568.17,-482.307"/>
<polygon fill="black" stroke="black" points="571.553,-483.228 571.418,-472.634 564.917,-481 571.553,-483.228"/>
</g>
<!-- 61C&#45;&gt;9G -->
<g id="edge18" class="edge"><title>61C&#45;&gt;9G</title>
<path fill="none" stroke="black" d="M535.199,-511.367C517.795,-498.657 491.894,-478.139 473.349,-456.383 449.525,-428.436 432.579,-389.278 423.044,-363.202"/>
<polygon fill="black" stroke="black" points="426.272,-361.829 419.64,-353.566 419.671,-364.161 426.272,-361.829"/>
</g>
<!-- 61C&#45;&gt;9C -->
<g id="edge16" class="edge"><title>61C&#45;&gt;9C</title>
<path fill="none" stroke="black" d="M547.749,-506.729C536.721,-475.321 513.393,-407.753 496.121,-349.95 484.881,-312.33 473.479,-268.397 466.486,-240.647"/>
<polygon fill="black" stroke="black" points="469.857,-239.7 464.032,-230.85 463.067,-241.401 469.857,-239.7"/>
</g>
<!-- 61C&#45;&gt;61B -->
<g id="edge14" class="edge"><title>61C&#45;&gt;61B</title>
<path fill="none" stroke="black" d="M577.456,-533.447C581.919,-535.16 586.667,-536.983 591.364,-538.785"/>
<polygon fill="black" stroke="black" points="590.235,-542.101 600.825,-542.417 592.744,-535.566 590.235,-542.101"/>
</g>
<!-- 61C&#45;&gt;9F -->
<g id="edge17" class="edge"><title>61C&#45;&gt;9F</title>
<path fill="none" stroke="black" d="M550.997,-506.453C545.873,-475.97 535.455,-413.988 529.389,-377.9"/>
<polygon fill="black" stroke="black" points="532.839,-377.307 527.729,-368.026 525.935,-378.468 532.839,-377.307"/>
</g>
<!-- 61CL -->
<g id="node13" class="node"><title>61CL</title>
<ellipse fill="lightgrey" stroke="black" cx="618.555" cy="-372.478" rx="31.3957" ry="18"/>
<text text-anchor="middle" x="618.555" y="-368.778" font-family="Times,serif" font-size="14.00">61CL</text>
</g>
<!-- 61CL&#45;&gt;61BL -->
<g id="edge21" class="edge"><title>61CL&#45;&gt;61BL</title>
<path fill="none" stroke="black" d="M625.11,-390.116C630.875,-405.63 639.361,-428.463 646.009,-446.352"/>
<polygon fill="black" stroke="black" points="642.816,-447.807 649.58,-455.962 649.378,-445.369 642.816,-447.807"/>
</g>
<!-- 61CL&#45;&gt;61A -->
<g id="edge19" class="edge"><title>61CL&#45;&gt;61A</title>
<path fill="none" stroke="black" d="M609.826,-389.942C604.222,-401.154 596.84,-415.924 590.535,-428.539"/>
<polygon fill="black" stroke="black" points="587.31,-427.162 585.97,-437.672 593.572,-430.291 587.31,-427.162"/>
</g>
<!-- 61CL&#45;&gt;9G -->
<g id="edge24" class="edge"><title>61CL&#45;&gt;9G</title>
<path fill="none" stroke="black" d="M587.008,-373.542C568.651,-373.667 545.129,-372.978 524.467,-369.723 497.637,-365.497 468.309,-356.201 446.617,-348.372"/>
<polygon fill="black" stroke="black" points="447.816,-345.085 437.223,-344.903 445.391,-351.651 447.816,-345.085"/>
</g>
<!-- 61CL&#45;&gt;9C -->
<g id="edge22" class="edge"><title>61CL&#45;&gt;9C</title>
<path fill="none" stroke="black" d="M602.737,-356.607C574.393,-328.166 514.869,-268.439 482.235,-235.694"/>
<polygon fill="black" stroke="black" points="484.473,-232.982 474.935,-228.369 479.515,-237.923 484.473,-232.982"/>
</g>
<!-- 61CL&#45;&gt;61B -->
<g id="edge20" class="edge"><title>61CL&#45;&gt;61B</title>
<path fill="none" stroke="black" d="M619.147,-390.625C620.166,-421.848 622.258,-485.951 623.471,-523.11"/>
<polygon fill="black" stroke="black" points="619.978,-523.388 623.803,-533.269 626.974,-523.16 619.978,-523.388"/>
</g>
<!-- 61CL&#45;&gt;9F -->
<g id="edge23" class="edge"><title>61CL&#45;&gt;9F</title>
<path fill="none" stroke="black" d="M589.636,-365.589C580.284,-363.361 569.807,-360.865 560.045,-358.539"/>
<polygon fill="black" stroke="black" points="560.746,-355.108 550.207,-356.196 559.124,-361.918 560.746,-355.108"/>
</g>
<!-- 152 -->
<g id="node14" class="node"><title>152</title>
<ellipse fill="lightgrey" stroke="black" cx="594.434" cy="-229.7" rx="27" ry="18"/>
<text text-anchor="middle" x="594.434" y="-226" font-family="Times,serif" font-size="14.00">152</text>
</g>
<!-- 152&#45;&gt;61C -->
<g id="edge25" class="edge"><title>152&#45;&gt;61C</title>
<path fill="none" stroke="black" d="M589.063,-247.554C578.089,-285.329 553.715,-376.309 548.796,-454.662 547.933,-468.399 548.858,-483.645 550.156,-496.374"/>
<polygon fill="black" stroke="black" points="546.688,-496.849 551.304,-506.386 553.642,-496.052 546.688,-496.849"/>
</g>
<!-- 161 -->
<g id="node15" class="node"><title>161</title>
<ellipse fill="lightgrey" stroke="black" cx="352.534" cy="-560.453" rx="27" ry="18"/>
<text text-anchor="middle" x="352.534" y="-556.753" font-family="Times,serif" font-size="14.00">161</text>
</g>
<!-- 161&#45;&gt;61C -->
<g id="edge26" class="edge"><title>161&#45;&gt;61C</title>
<path fill="none" stroke="black" d="M378.065,-554.319C406.66,-547.64 454.463,-537.043 496.091,-530.536 502.871,-529.477 510.127,-528.551 517.131,-527.764"/>
<polygon fill="black" stroke="black" points="517.549,-531.239 527.126,-526.708 516.814,-524.278 517.549,-531.239"/>
</g>
<!-- 70 -->
<g id="node16" class="node"><title>70</title>
<ellipse fill="lightgrey" stroke="black" cx="480.806" cy="-738.186" rx="27" ry="18"/>
<text text-anchor="middle" x="480.806" y="-734.486" font-family="Times,serif" font-size="14.00">70</text>
</g>
<!-- 161&#45;&gt;70 -->
<g id="edge27" class="edge"><title>161&#45;&gt;70</title>
<path fill="none" stroke="black" d="M364.372,-576.855C386.994,-608.201 436.479,-676.766 463.069,-713.609"/>
<polygon fill="black" stroke="black" points="460.307,-715.763 468.997,-721.823 465.983,-711.666 460.307,-715.763"/>
</g>
<!-- 176 -->
<g id="node17" class="node"><title>176</title>
<ellipse fill="lightgrey" stroke="black" cx="509.657" cy="-877.813" rx="27" ry="18"/>
<text text-anchor="middle" x="509.657" y="-874.113" font-family="Times,serif" font-size="14.00">176</text>
</g>
<!-- 176&#45;&gt;70 -->
<g id="edge28" class="edge"><title>176&#45;&gt;70</title>
<path fill="none" stroke="black" d="M505.944,-859.845C501.032,-836.072 492.323,-793.924 486.556,-766.016"/>
<polygon fill="black" stroke="black" points="489.956,-765.17 484.505,-756.085 483.101,-766.586 489.956,-765.17"/>
</g>
<!-- 170 -->
<g id="node18" class="node"><title>170</title>
<ellipse fill="lightgrey" stroke="black" cx="647.552" cy="-731.585" rx="27" ry="18"/>
<text text-anchor="middle" x="647.552" y="-727.885" font-family="Times,serif" font-size="14.00">170</text>
</g>
<!-- 176&#45;&gt;170 -->
<g id="edge29" class="edge"><title>176&#45;&gt;170</title>
<path fill="none" stroke="black" d="M526.452,-863.266C544.253,-847.558 572.857,-821.48 595.455,-796.928 607.35,-784.004 619.645,-768.691 629.302,-756.138"/>
<polygon fill="black" stroke="black" points="632.261,-758.031 635.529,-747.952 626.689,-753.793 632.261,-758.031"/>
</g>
<!-- 170&#45;&gt;61B -->
<g id="edge31" class="edge"><title>170&#45;&gt;61B</title>
<path fill="none" stroke="black" d="M639.105,-714.112C630.476,-694.966 617.922,-663.089 614.879,-633.927 612.996,-615.875 615.268,-595.628 618.064,-579.713"/>
<polygon fill="black" stroke="black" points="621.583,-579.95 620.039,-569.468 614.709,-578.625 621.583,-579.95"/>
</g>
<!-- 170&#45;&gt;70 -->
<g id="edge32" class="edge"><title>170&#45;&gt;70</title>
<path fill="none" stroke="black" d="M620.391,-732.661C592.532,-733.763 549.001,-735.486 517.963,-736.715"/>
<polygon fill="black" stroke="black" points="517.81,-733.218 507.956,-737.111 518.087,-740.213 517.81,-733.218"/>
</g>
<!-- 174 -->
<g id="node19" class="node"><title>174</title>
<ellipse fill="lightgrey" stroke="black" cx="610.367" cy="-1081.95" rx="27" ry="18"/>
<text text-anchor="middle" x="610.367" y="-1078.25" font-family="Times,serif" font-size="14.00">174</text>
</g>
<!-- 174&#45;&gt;170 -->
<g id="edge30" class="edge"><title>174&#45;&gt;170</title>
<path fill="none" stroke="black" d="M608.345,-1063.95C604.853,-1029.59 598.763,-952.329 606.428,-887.926 611.941,-841.604 627.631,-789.529 637.959,-758.697"/>
<polygon fill="black" stroke="black" points="641.318,-759.689 641.233,-749.094 634.693,-757.43 641.318,-759.689"/>
</g>
<!-- 169 -->
<g id="node20" class="node"><title>169</title>
<ellipse fill="lightgrey" stroke="black" cx="643.479" cy="-633.928" rx="27" ry="18"/>
<text text-anchor="middle" x="643.479" y="-630.228" font-family="Times,serif" font-size="14.00">169</text>
</g>
<!-- 169&#45;&gt;61B -->
<g id="edge33" class="edge"><title>169&#45;&gt;61B</title>
<path fill="none" stroke="black" d="M639.339,-616.034C636.863,-605.336 633.664,-591.513 630.862,-579.402"/>
<polygon fill="black" stroke="black" points="634.194,-578.276 628.529,-569.322 627.374,-579.854 634.194,-578.276"/>
</g>
<!-- 169&#45;&gt;61C -->
<g id="edge34" class="edge"><title>169&#45;&gt;61C</title>
<path fill="none" stroke="black" d="M630.28,-617.774C615.263,-599.397 590.598,-569.213 573.4,-548.166"/>
<polygon fill="black" stroke="black" points="576.023,-545.845 566.985,-540.317 570.603,-550.275 576.023,-545.845"/>
</g>
<!-- 169&#45;&gt;70 -->
<g id="edge35" class="edge"><title>169&#45;&gt;70</title>
<path fill="none" stroke="black" d="M619.268,-641.944C599.318,-649.139 570.755,-660.824 548.274,-675.56 531.228,-686.733 514.422,-702.316 501.847,-715.142"/>
<polygon fill="black" stroke="black" points="498.99,-713.065 494.6,-722.708 504.045,-717.907 498.99,-713.065"/>
</g>
<!-- 186 -->
<g id="node21" class="node"><title>186</title>
<ellipse fill="lightgrey" stroke="black" cx="431.778" cy="-489.057" rx="27" ry="18"/>
<text text-anchor="middle" x="431.778" y="-485.357" font-family="Times,serif" font-size="14.00">186</text>
</g>
<!-- 186&#45;&gt;61B -->
<g id="edge36" class="edge"><title>186&#45;&gt;61B</title>
<path fill="none" stroke="black" d="M451.556,-501.438C474.945,-515.236 515.555,-536.588 553.899,-544.053 564.701,-546.155 576.558,-547.694 587.416,-548.805"/>
<polygon fill="black" stroke="black" points="587.169,-552.297 597.452,-549.744 587.821,-545.327 587.169,-552.297"/>
</g>
<!-- 186&#45;&gt;61C -->
<g id="edge37" class="edge"><title>186&#45;&gt;61C</title>
<path fill="none" stroke="black" d="M456.811,-496.305C474.857,-501.53 499.443,-508.649 519.374,-514.42"/>
<polygon fill="black" stroke="black" points="518.444,-517.795 529.023,-517.214 520.391,-511.071 518.444,-517.795"/>
</g>
<!-- 184 -->
<g id="node22" class="node"><title>184</title>
<ellipse fill="lightgrey" stroke="black" cx="714.164" cy="-395.643" rx="27" ry="18"/>
<text text-anchor="middle" x="714.164" y="-391.943" font-family="Times,serif" font-size="14.00">184</text>
</g>
<!-- 184&#45;&gt;61BL -->
<g id="edge39" class="edge"><title>184&#45;&gt;61BL</title>
<path fill="none" stroke="black" d="M702.151,-411.824C694.251,-422.466 683.754,-436.605 674.785,-448.685"/>
<polygon fill="black" stroke="black" points="671.735,-446.922 668.584,-457.038 677.355,-451.095 671.735,-446.922"/>
</g>
<!-- 184&#45;&gt;61B -->
<g id="edge38" class="edge"><title>184&#45;&gt;61B</title>
<path fill="none" stroke="black" d="M709.991,-413.595C705.849,-429.813 698.713,-454.084 688.984,-473.75 678.679,-494.58 661.745,-514.661 647.801,-529.192"/>
<polygon fill="black" stroke="black" points="644.96,-527.088 640.424,-536.662 649.941,-532.006 644.96,-527.088"/>
</g>
<!-- 189 -->
<g id="node23" class="node"><title>189</title>
<ellipse fill="lightgrey" stroke="black" cx="294.286" cy="-1063.8" rx="27" ry="18"/>
<text text-anchor="middle" x="294.286" y="-1060.1" font-family="Times,serif" font-size="14.00">189</text>
</g>
<!-- 189&#45;&gt;70 -->
<g id="edge40" class="edge"><title>189&#45;&gt;70</title>
<path fill="none" stroke="black" d="M305.346,-1047.1C329.135,-1010.9 386.453,-922.25 428.983,-844.763 443.662,-818.017 458.724,-786.496 468.8,-764.706"/>
<polygon fill="black" stroke="black" points="472.066,-765.98 473.059,-755.431 465.705,-763.058 472.066,-765.98"/>
</g>
<!-- 188 -->
<g id="node24" class="node"><title>188</title>
<ellipse fill="lightgrey" stroke="black" cx="568.477" cy="-689.433" rx="27" ry="18"/>
<text text-anchor="middle" x="568.477" y="-685.733" font-family="Times,serif" font-size="14.00">188</text>
</g>
<!-- 189&#45;&gt;188 -->
<g id="edge41" class="edge"><title>189&#45;&gt;188</title>
<path fill="none" stroke="black" d="M306.421,-1047.23C349.954,-987.793 498.43,-785.071 550.364,-714.164"/>
<polygon fill="black" stroke="black" points="553.397,-715.946 556.482,-705.811 547.75,-711.81 553.397,-715.946"/>
</g>
<!-- 188&#45;&gt;61A -->
<g id="edge50" class="edge"><title>188&#45;&gt;61A</title>
<path fill="none" stroke="black" d="M576.965,-672.122C584.401,-655.662 594.386,-629.971 596.77,-606.31 599.111,-583.08 589.061,-520.12 582.561,-483.088"/>
<polygon fill="black" stroke="black" points="585.954,-482.175 580.755,-472.943 579.062,-483.402 585.954,-482.175"/>
</g>
<!-- 188&#45;&gt;61B -->
<g id="edge51" class="edge"><title>188&#45;&gt;61B</title>
<path fill="none" stroke="black" d="M575.56,-671.959C585.087,-648.452 602.129,-606.405 613.349,-578.721"/>
<polygon fill="black" stroke="black" points="616.683,-579.814 617.195,-569.232 610.195,-577.185 616.683,-579.814"/>
</g>
<!-- 188&#45;&gt;70 -->
<g id="edge52" class="edge"><title>188&#45;&gt;70</title>
<path fill="none" stroke="black" d="M547.701,-700.987C536.644,-707.135 522.853,-714.804 510.669,-721.579"/>
<polygon fill="black" stroke="black" points="508.776,-718.627 501.738,-726.546 512.178,-724.745 508.776,-718.627"/>
</g>
<!-- 172 -->
<g id="node25" class="node"><title>172</title>
<ellipse fill="lightgrey" stroke="black" cx="635.027" cy="-888.024" rx="27" ry="18"/>
<text text-anchor="middle" x="635.027" y="-884.324" font-family="Times,serif" font-size="14.00">172</text>
</g>
<!-- 172&#45;&gt;170 -->
<g id="edge42" class="edge"><title>172&#45;&gt;170</title>
<path fill="none" stroke="black" d="M636.489,-869.772C638.657,-842.69 642.744,-791.637 645.298,-759.741"/>
<polygon fill="black" stroke="black" points="648.791,-759.968 646.1,-749.721 641.813,-759.41 648.791,-759.968"/>
</g>
<!-- C191 -->
<g id="node26" class="node"><title>C191</title>
<ellipse fill="lightgrey" stroke="black" cx="869.084" cy="-679.829" rx="30.5947" ry="18"/>
<text text-anchor="middle" x="869.084" y="-676.129" font-family="Times,serif" font-size="14.00">C191</text>
</g>
<!-- C191&#45;&gt;170 -->
<g id="edge43" class="edge"><title>C191&#45;&gt;170</title>
<path fill="none" stroke="black" d="M838.611,-681.584C808.448,-684.005 761.279,-689.648 722.393,-702.57 708.377,-707.227 693.139,-713.001 680.093,-718.169"/>
<polygon fill="black" stroke="black" points="678.58,-715.005 670.6,-721.975 681.185,-721.503 678.58,-715.005"/>
</g>
<!-- 168 -->
<g id="node27" class="node"><title>168</title>
<ellipse fill="lightgrey" stroke="black" cx="496.114" cy="-646.297" rx="27" ry="18"/>
<text text-anchor="middle" x="496.114" y="-642.597" font-family="Times,serif" font-size="14.00">168</text>
</g>
<!-- 168&#45;&gt;61B -->
<g id="edge44" class="edge"><title>168&#45;&gt;61B</title>
<path fill="none" stroke="black" d="M507.491,-629.585C515.997,-618.007 528.463,-602.827 542.057,-592.209 556.838,-580.664 575.414,-571.128 591.179,-564.192"/>
<polygon fill="black" stroke="black" points="592.729,-567.336 600.573,-560.214 590,-560.89 592.729,-567.336"/>
</g>
<!-- 162 -->
<g id="node28" class="node"><title>162</title>
<ellipse fill="lightgrey" stroke="black" cx="434.661" cy="-599.953" rx="27" ry="18"/>
<text text-anchor="middle" x="434.661" y="-596.253" font-family="Times,serif" font-size="14.00">162</text>
</g>
<!-- 168&#45;&gt;162 -->
<g id="edge45" class="edge"><title>168&#45;&gt;162</title>
<path fill="none" stroke="black" d="M478.009,-632.643C472.68,-628.625 466.739,-624.144 461.006,-619.821"/>
<polygon fill="black" stroke="black" points="462.941,-616.897 452.85,-613.67 458.726,-622.486 462.941,-616.897"/>
</g>
<!-- 162&#45;&gt;61B -->
<g id="edge53" class="edge"><title>162&#45;&gt;61B</title>
<path fill="none" stroke="black" d="M460.25,-593.414C493.442,-584.931 551.515,-570.09 588.94,-560.525"/>
<polygon fill="black" stroke="black" points="590.089,-563.844 598.911,-557.977 588.356,-557.062 590.089,-563.844"/>
</g>
<!-- 162&#45;&gt;61C -->
<g id="edge54" class="edge"><title>162&#45;&gt;61C</title>
<path fill="none" stroke="black" d="M459.439,-592.679C477.111,-586.743 500.872,-577.184 519.085,-564.044 524.979,-559.792 530.573,-554.377 535.488,-548.926"/>
<polygon fill="black" stroke="black" points="538.369,-550.94 542.158,-541.046 533.026,-546.417 538.369,-550.94"/>
</g>
<!-- 162&#45;&gt;70 -->
<g id="edge55" class="edge"><title>162&#45;&gt;70</title>
<path fill="none" stroke="black" d="M440.599,-617.742C448.456,-641.278 462.385,-683.004 471.609,-710.634"/>
<polygon fill="black" stroke="black" points="468.404,-712.088 474.891,-720.466 475.044,-709.872 468.404,-712.088"/>
</g>
<!-- 164 -->
<g id="node29" class="node"><title>164</title>
<ellipse fill="lightgrey" stroke="black" cx="799.587" cy="-442.905" rx="27" ry="18"/>
<text text-anchor="middle" x="799.587" y="-439.205" font-family="Times,serif" font-size="14.00">164</text>
</g>
<!-- 164&#45;&gt;61B -->
<g id="edge46" class="edge"><title>164&#45;&gt;61B</title>
<path fill="none" stroke="black" d="M779.49,-455.358C748.469,-474.581 688.789,-511.562 653.188,-533.623"/>
<polygon fill="black" stroke="black" points="650.915,-530.914 644.259,-539.156 654.603,-536.864 650.915,-530.914"/>
</g>
<!-- 164&#45;&gt;61C -->
<g id="edge47" class="edge"><title>164&#45;&gt;61C</title>
<path fill="none" stroke="black" d="M776.262,-452.131C752.164,-461.531 713.384,-476.295 679.363,-487.606 649.096,-497.667 614.26,-507.794 589.008,-514.877"/>
<polygon fill="black" stroke="black" points="587.846,-511.568 579.153,-517.624 589.725,-518.311 587.846,-511.568"/>
</g>
<!-- 160 -->
<g id="node30" class="node"><title>160</title>
<ellipse fill="lightgrey" stroke="black" cx="825.62" cy="-563.792" rx="27" ry="18"/>
<text text-anchor="middle" x="825.62" y="-560.092" font-family="Times,serif" font-size="14.00">160</text>
</g>
<!-- 160&#45;&gt;61BL -->
<g id="edge49" class="edge"><title>160&#45;&gt;61BL</title>
<path fill="none" stroke="black" d="M804.504,-552.569C775.313,-537.053 722.379,-508.919 688.28,-490.795"/>
<polygon fill="black" stroke="black" points="689.67,-487.57 679.197,-485.967 686.384,-493.751 689.67,-487.57"/>
</g>
<!-- 160&#45;&gt;61B -->
<g id="edge48" class="edge"><title>160&#45;&gt;61B</title>
<path fill="none" stroke="black" d="M798.482,-562.13C763.129,-559.964 701.164,-556.167 661.492,-553.737"/>
<polygon fill="black" stroke="black" points="661.62,-550.238 651.425,-553.12 661.192,-557.225 661.62,-550.238"/>
</g>
<!-- 150 -->
<g id="node31" class="node"><title>150</title>
<ellipse fill="lightgrey" stroke="black" cx="379.282" cy="-693.991" rx="27" ry="18"/>
<text text-anchor="middle" x="379.282" y="-690.291" font-family="Times,serif" font-size="14.00">150</text>
</g>
<!-- 150&#45;&gt;61C -->
<g id="edge56" class="edge"><title>150&#45;&gt;61C</title>
<path fill="none" stroke="black" d="M395.705,-679.68C422.344,-656.26 476.301,-607.949 519.085,-564.044 524.072,-558.927 529.26,-553.257 534.065,-547.843"/>
<polygon fill="black" stroke="black" points="536.81,-550.021 540.763,-540.191 531.543,-545.411 536.81,-550.021"/>
</g>
<!-- H196 -->
<g id="node32" class="node"><title>H196</title>
<ellipse fill="lightgrey" stroke="black" cx="572.333" cy="-783.028" rx="31.3957" ry="18"/>
<text text-anchor="middle" x="572.333" y="-779.328" font-family="Times,serif" font-size="14.00">H196</text>
</g>
<!-- H196&#45;&gt;170 -->
<g id="edge58" class="edge"><title>H196&#45;&gt;170</title>
<path fill="none" stroke="black" d="M592.49,-769.242C600.998,-763.423 611.038,-756.557 620.199,-750.292"/>
<polygon fill="black" stroke="black" points="622.355,-753.058 628.633,-744.524 618.403,-747.28 622.355,-753.058"/>
</g>
<!-- H196&#45;&gt;150 -->
<g id="edge57" class="edge"><title>H196&#45;&gt;150</title>
<path fill="none" stroke="black" d="M542.319,-777.749C519.176,-772.965 486.784,-764.691 460.474,-751.97 440.08,-742.11 419.334,-727.192 403.917,-714.958"/>
<polygon fill="black" stroke="black" points="405.909,-712.067 395.937,-708.487 401.5,-717.504 405.909,-712.067"/>
</g>
<!-- C149 -->
<g id="node33" class="node"><title>C149</title>
<ellipse fill="lightgrey" stroke="black" cx="564.624" cy="-606.168" rx="30.5947" ry="18"/>
<text text-anchor="middle" x="564.624" y="-602.468" font-family="Times,serif" font-size="14.00">C149</text>
</g>
<!-- C149&#45;&gt;61C -->
<g id="edge59" class="edge"><title>C149&#45;&gt;61C</title>
<path fill="none" stroke="black" d="M562.271,-588.033C560.926,-577.665 559.21,-564.435 557.691,-552.731"/>
<polygon fill="black" stroke="black" points="561.126,-552.004 556.369,-542.537 554.184,-552.905 561.126,-552.004"/>
</g>
<!-- C149&#45;&gt;70 -->
<g id="edge60" class="edge"><title>C149&#45;&gt;70</title>
<path fill="none" stroke="black" d="M553.838,-623.157C539.441,-645.832 513.819,-686.189 497.072,-712.567"/>
<polygon fill="black" stroke="black" points="493.956,-710.944 491.551,-721.262 499.866,-714.696 493.956,-710.944"/>
</g>
<!-- 264 -->
<g id="node34" class="node"><title>264</title>
<ellipse fill="lightgrey" stroke="black" cx="924.146" cy="-466.705" rx="27" ry="18"/>
<text text-anchor="middle" x="924.146" y="-463.005" font-family="Times,serif" font-size="14.00">264</text>
</g>
<!-- 264&#45;&gt;164 -->
<g id="edge61" class="edge"><title>264&#45;&gt;164</title>
<path fill="none" stroke="black" d="M898.034,-461.716C879.931,-458.257 855.589,-453.606 835.64,-449.794"/>
<polygon fill="black" stroke="black" points="836.143,-446.327 825.664,-447.888 834.83,-453.202 836.143,-446.327"/>
</g>
<!-- 263 -->
<g id="node35" class="node"><title>263</title>
<ellipse fill="lightgrey" stroke="black" cx="1071.25" cy="-321.804" rx="27" ry="18"/>
<text text-anchor="middle" x="1071.25" y="-318.104" font-family="Times,serif" font-size="14.00">263</text>
</g>
<!-- 264&#45;&gt;263 -->
<g id="edge62" class="edge"><title>264&#45;&gt;263</title>
<path fill="none" stroke="black" d="M939.334,-451.744C965.321,-426.147 1018.43,-373.829 1048.74,-343.977"/>
<polygon fill="black" stroke="black" points="1051.26,-346.412 1055.92,-336.901 1046.34,-341.425 1051.26,-346.412"/>
</g>
<!-- 263&#45;&gt;164 -->
<g id="edge79" class="edge"><title>263&#45;&gt;164</title>
<path fill="none" stroke="black" d="M1048.56,-331.921C1000.32,-353.425 887.451,-403.738 831.789,-428.55"/>
<polygon fill="black" stroke="black" points="830.117,-425.463 822.408,-432.732 832.967,-431.857 830.117,-425.463"/>
</g>
<!-- 270 -->
<g id="node36" class="node"><title>270</title>
<ellipse fill="lightgrey" stroke="black" cx="847.715" cy="-850.424" rx="27" ry="18"/>
<text text-anchor="middle" x="847.715" y="-846.724" font-family="Times,serif" font-size="14.00">270</text>
</g>
<!-- 270&#45;&gt;170 -->
<g id="edge63" class="edge"><title>270&#45;&gt;170</title>
<path fill="none" stroke="black" d="M827.421,-838.375C791.754,-817.199 717.723,-773.247 676.628,-748.848"/>
<polygon fill="black" stroke="black" points="678.286,-745.762 667.9,-743.666 674.712,-751.781 678.286,-745.762"/>
</g>
<!-- 271 -->
<g id="node37" class="node"><title>271</title>
<ellipse fill="lightgrey" stroke="black" cx="721.201" cy="-836.898" rx="27" ry="18"/>
<text text-anchor="middle" x="721.201" y="-833.198" font-family="Times,serif" font-size="14.00">271</text>
</g>
<!-- 271&#45;&gt;170 -->
<g id="edge64" class="edge"><title>271&#45;&gt;170</title>
<path fill="none" stroke="black" d="M709.694,-820.443C697.641,-803.209 678.575,-775.946 664.739,-756.161"/>
<polygon fill="black" stroke="black" points="667.578,-754.114 658.979,-747.925 661.842,-758.126 667.578,-754.114"/>
</g>
<!-- 271&#45;&gt;270 -->
<g id="edge65" class="edge"><title>271&#45;&gt;270</title>
<path fill="none" stroke="black" d="M748.031,-839.766C766.314,-841.721 790.756,-844.334 810.861,-846.484"/>
<polygon fill="black" stroke="black" points="810.608,-849.977 820.923,-847.56 811.352,-843.016 810.608,-849.977"/>
</g>
<!-- 276 -->
<g id="node38" class="node"><title>276</title>
<ellipse fill="lightgrey" stroke="black" cx="782.697" cy="-1072.78" rx="27" ry="18"/>
<text text-anchor="middle" x="782.697" y="-1069.08" font-family="Times,serif" font-size="14.00">276</text>
</g>
<!-- 276&#45;&gt;170 -->
<g id="edge66" class="edge"><title>276&#45;&gt;170</title>
<path fill="none" stroke="black" d="M775.621,-1054.92C753.408,-998.839 684.958,-826.025 658.318,-758.766"/>
<polygon fill="black" stroke="black" points="661.495,-757.281 654.558,-749.272 654.986,-759.859 661.495,-757.281"/>
</g>
<!-- 278 -->
<g id="node39" class="node"><title>278</title>
<ellipse fill="lightgrey" stroke="black" cx="460.829" cy="-1075.84" rx="27" ry="18"/>
<text text-anchor="middle" x="460.829" y="-1072.14" font-family="Times,serif" font-size="14.00">278</text>
</g>
<!-- 278&#45;&gt;170 -->
<g id="edge67" class="edge"><title>278&#45;&gt;170</title>
<path fill="none" stroke="black" d="M470.089,-1058.77C500.388,-1002.9 596.726,-825.291 633.291,-757.879"/>
<polygon fill="black" stroke="black" points="636.545,-759.219 638.237,-748.76 630.392,-755.881 636.545,-759.219"/>
</g>
<!-- 289A -->
<g id="node40" class="node"><title>289A</title>
<ellipse fill="lightgrey" stroke="black" cx="396.186" cy="-844.694" rx="31.3957" ry="18"/>
<text text-anchor="middle" x="396.186" y="-840.994" font-family="Times,serif" font-size="14.00">289A</text>
</g>
<!-- 289A&#45;&gt;70 -->
<g id="edge68" class="edge"><title>289A&#45;&gt;70</title>
<path fill="none" stroke="black" d="M409.408,-828.052C423.399,-810.441 445.616,-782.478 461.552,-762.421"/>
<polygon fill="black" stroke="black" points="464.474,-764.369 467.954,-754.362 458.993,-760.014 464.474,-764.369"/>
</g>
<!-- 289A&#45;&gt;188 -->
<g id="edge69" class="edge"><title>289A&#45;&gt;188</title>
<path fill="none" stroke="black" d="M413.72,-829.424C434.614,-811.176 470.521,-779.651 500.92,-752.12 515.75,-738.689 532.211,-723.422 545.171,-711.317"/>
<polygon fill="black" stroke="black" points="547.832,-713.622 552.743,-704.234 543.049,-708.51 547.832,-713.622"/>
</g>
<!-- 250 -->
<g id="node41" class="node"><title>250</title>
<ellipse fill="lightgrey" stroke="black" cx="49.3183" cy="-1043.6" rx="27" ry="18"/>
<text text-anchor="middle" x="49.3183" y="-1039.9" font-family="Times,serif" font-size="14.00">250</text>
</g>
<!-- 250&#45;&gt;150 -->
<g id="edge70" class="edge"><title>250&#45;&gt;150</title>
<path fill="none" stroke="black" d="M66.3148,-1029.43C105.105,-996.709 202.345,-912.614 274.092,-832.91 307.879,-795.377 342.33,-747.723 362.213,-719.107"/>
<polygon fill="black" stroke="black" points="365.338,-720.74 368.137,-710.522 359.577,-716.765 365.338,-720.74"/>
</g>
<!-- 262B -->
<g id="node42" class="node"><title>262B</title>
<ellipse fill="lightgrey" stroke="black" cx="32.3594" cy="-765.599" rx="30.5947" ry="18"/>
<text text-anchor="middle" x="32.3594" y="-761.899" font-family="Times,serif" font-size="14.00">262B</text>
</g>
<!-- 262A -->
<g id="node43" class="node"><title>262A</title>
<ellipse fill="lightgrey" stroke="black" cx="31.1972" cy="-554.707" rx="31.3957" ry="18"/>
<text text-anchor="middle" x="31.1972" y="-551.007" font-family="Times,serif" font-size="14.00">262A</text>
</g>
<!-- 262B&#45;&gt;262A -->
<g id="edge71" class="edge"><title>262B&#45;&gt;262A</title>
<path fill="none" stroke="black" d="M32.2583,-747.252C32.0547,-710.313 31.5943,-626.764 31.3524,-582.863"/>
<polygon fill="black" stroke="black" points="34.8524,-582.841 31.2973,-572.861 27.8525,-582.88 34.8524,-582.841"/>
</g>
<!-- 262A&#45;&gt;162 -->
<g id="edge74" class="edge"><title>262A&#45;&gt;162</title>
<path fill="none" stroke="black" d="M61.8538,-558.145C134.891,-566.336 318.949,-586.977 397.836,-595.824"/>
<polygon fill="black" stroke="black" points="397.478,-599.305 407.806,-596.942 398.258,-592.349 397.478,-599.305"/>
</g>
<!-- 288 -->
<g id="node44" class="node"><title>288</title>
<ellipse fill="lightgrey" stroke="black" cx="742.485" cy="-716.518" rx="27" ry="18"/>
<text text-anchor="middle" x="742.485" y="-712.818" font-family="Times,serif" font-size="14.00">288</text>
</g>
<!-- 288&#45;&gt;170 -->
<g id="edge73" class="edge"><title>288&#45;&gt;170</title>
<path fill="none" stroke="black" d="M716.041,-720.715C706.063,-722.299 694.531,-724.129 683.809,-725.831"/>
<polygon fill="black" stroke="black" points="683.182,-722.387 673.855,-727.411 684.28,-729.3 683.182,-722.387"/>
</g>
<!-- 288&#45;&gt;188 -->
<g id="edge72" class="edge"><title>288&#45;&gt;188</title>
<path fill="none" stroke="black" d="M716.057,-712.405C686.459,-707.798 638.295,-700.3 605.083,-695.131"/>
<polygon fill="black" stroke="black" points="605.288,-691.621 594.868,-693.541 604.211,-698.537 605.288,-691.621"/>
</g>
<!-- 285 -->
<g id="node45" class="node"><title>285</title>
<ellipse fill="lightgrey" stroke="black" cx="1024.13" cy="-46.8824" rx="27" ry="18"/>
<text text-anchor="middle" x="1024.13" y="-43.1824" font-family="Times,serif" font-size="14.00">285</text>
</g>
<!-- 285&#45;&gt;184 -->
<g id="edge75" class="edge"><title>285&#45;&gt;184</title>
<path fill="none" stroke="black" d="M1008.91,-62.0221C974.522,-96.4341 888.575,-183.537 821.48,-260.771 788.898,-298.277 753.438,-343.864 732.539,-371.275"/>
<polygon fill="black" stroke="black" points="729.551,-369.422 726.287,-379.502 735.124,-373.657 729.551,-369.422"/>
</g>
<!-- 260A -->
<g id="node46" class="node"><title>260A</title>
<ellipse fill="lightgrey" stroke="black" cx="714.617" cy="-533.273" rx="31.3957" ry="18"/>
<text text-anchor="middle" x="714.617" y="-529.573" font-family="Times,serif" font-size="14.00">260A</text>
</g>
<!-- 260A&#45;&gt;61BL -->
<g id="edge77" class="edge"><title>260A&#45;&gt;61BL</title>
<path fill="none" stroke="black" d="M698.959,-517.318C692.802,-511.045 685.614,-503.721 678.906,-496.886"/>
<polygon fill="black" stroke="black" points="681.391,-494.421 671.888,-489.736 676.395,-499.324 681.391,-494.421"/>
</g>
<!-- 260A&#45;&gt;61B -->
<g id="edge76" class="edge"><title>260A&#45;&gt;61B</title>
<path fill="none" stroke="black" d="M685.076,-539.229C677.198,-540.817 668.599,-542.551 660.416,-544.201"/>
<polygon fill="black" stroke="black" points="659.471,-540.821 650.36,-546.229 660.854,-547.683 659.471,-540.821"/>
</g>
<!-- 260B -->
<g id="node47" class="node"><title>260B</title>
<ellipse fill="lightgrey" stroke="black" cx="1075.44" cy="-578.81" rx="30.5947" ry="18"/>
<text text-anchor="middle" x="1075.44" y="-575.11" font-family="Times,serif" font-size="14.00">260B</text>
</g>
<!-- 260B&#45;&gt;160 -->
<g id="edge78" class="edge"><title>260B&#45;&gt;160</title>
<path fill="none" stroke="black" d="M1044.81,-576.968C998.925,-574.21 912.465,-569.013 862.953,-566.036"/>
<polygon fill="black" stroke="black" points="862.874,-562.525 852.682,-565.419 862.454,-569.513 862.874,-562.525"/>
</g>
<!-- 261 -->
<g id="node48" class="node"><title>261</title>
<ellipse fill="lightgrey" stroke="black" cx="253.976" cy="-818.978" rx="27" ry="18"/>
<text text-anchor="middle" x="253.976" y="-815.278" font-family="Times,serif" font-size="14.00">261</text>
</g>
<!-- 261&#45;&gt;162 -->
<g id="edge80" class="edge"><title>261&#45;&gt;162</title>
<path fill="none" stroke="black" d="M265.726,-802.281C284.601,-775.736 323.211,-722.57 359.149,-680.07 376.225,-659.876 396.9,-638.108 412.296,-622.366"/>
<polygon fill="black" stroke="black" points="414.872,-624.739 419.392,-615.156 409.883,-619.829 414.872,-624.739"/>
</g>
<!-- 266 -->
<g id="node49" class="node"><title>266</title>
<ellipse fill="lightgrey" stroke="black" cx="243.501" cy="-642.537" rx="27" ry="18"/>
<text text-anchor="middle" x="243.501" y="-638.837" font-family="Times,serif" font-size="14.00">266</text>
</g>
<!-- 266&#45;&gt;162 -->
<g id="edge81" class="edge"><title>266&#45;&gt;162</title>
<path fill="none" stroke="black" d="M269.281,-636.794C302.723,-629.344 361.232,-616.311 398.939,-607.911"/>
<polygon fill="black" stroke="black" points="399.985,-611.264 408.984,-605.673 398.463,-604.431 399.985,-611.264"/>
</g>
<!-- 265 -->
<g id="node50" class="node"><title>265</title>
<ellipse fill="lightgrey" stroke="black" cx="841.645" cy="-274.67" rx="27" ry="18"/>
<text text-anchor="middle" x="841.645" y="-270.97" font-family="Times,serif" font-size="14.00">265</text>
</g>
<!-- 265&#45;&gt;164 -->
<g id="edge82" class="edge"><title>265&#45;&gt;164</title>
<path fill="none" stroke="black" d="M837.144,-292.674C829.808,-322.019 815.222,-380.363 806.544,-415.075"/>
<polygon fill="black" stroke="black" points="803.085,-414.48 804.056,-425.03 809.876,-416.178 803.085,-414.48"/>
</g>
<!-- 268 -->
<g id="node51" class="node"><title>268</title>
<ellipse fill="lightgrey" stroke="black" cx="233.186" cy="-470.636" rx="27" ry="18"/>
<text text-anchor="middle" x="233.186" y="-466.936" font-family="Times,serif" font-size="14.00">268</text>
</g>
<!-- 268&#45;&gt;162 -->
<g id="edge83" class="edge"><title>268&#45;&gt;162</title>
<path fill="none" stroke="black" d="M255.818,-481.098C284.183,-494.622 333.813,-519.661 372.874,-546.674 386.373,-556.01 400.311,-567.81 411.524,-577.931"/>
<polygon fill="black" stroke="black" points="409.43,-580.759 419.163,-584.944 414.164,-575.603 409.43,-580.759"/>
</g>
<!-- 274 -->
<g id="node52" class="node"><title>274</title>
<ellipse fill="lightgrey" stroke="black" cx="1060.27" cy="-795.476" rx="27" ry="18"/>
<text text-anchor="middle" x="1060.27" y="-791.776" font-family="Times,serif" font-size="14.00">274</text>
</g>
<!-- 274&#45;&gt;170 -->
<g id="edge84" class="edge"><title>274&#45;&gt;170</title>
<path fill="none" stroke="black" d="M1033.83,-791.383C962.497,-780.34 766.022,-749.925 684.132,-737.248"/>
<polygon fill="black" stroke="black" points="684.462,-733.758 674.044,-735.686 683.391,-740.675 684.462,-733.758"/>
</g>
<!-- 286A -->
<g id="node53" class="node"><title>286A</title>
<ellipse fill="lightgrey" stroke="black" cx="495.976" cy="-550.136" rx="31.3957" ry="18"/>
<text text-anchor="middle" x="495.976" y="-546.436" font-family="Times,serif" font-size="14.00">286A</text>
</g>
<!-- 286A&#45;&gt;61B -->
<g id="edge85" class="edge"><title>286A&#45;&gt;61B</title>
<path fill="none" stroke="black" d="M527.391,-550.461C545.435,-550.648 568.202,-550.883 587.145,-551.079"/>
<polygon fill="black" stroke="black" points="587.185,-554.579 597.221,-551.183 587.257,-547.58 587.185,-554.579"/>
</g>
<!-- 286A&#45;&gt;61C -->
<g id="edge86" class="edge"><title>286A&#45;&gt;61C</title>
<path fill="none" stroke="black" d="M520.93,-539.095C521.252,-538.952 521.576,-538.809 521.899,-538.666"/>
<polygon fill="black" stroke="black" points="523.56,-541.758 531.289,-534.511 520.728,-535.357 523.56,-541.758"/>
</g>
<!-- 286B -->
<g id="node54" class="node"><title>286B</title>
<ellipse fill="lightgrey" stroke="black" cx="353.986" cy="-427.332" rx="30.5947" ry="18"/>
<text text-anchor="middle" x="353.986" y="-423.632" font-family="Times,serif" font-size="14.00">286B</text>
</g>
<!-- 286B&#45;&gt;186 -->
<g id="edge88" class="edge"><title>286B&#45;&gt;186</title>
<path fill="none" stroke="black" d="M372.421,-441.96C382.518,-449.971 395.186,-460.023 406.223,-468.78"/>
<polygon fill="black" stroke="black" points="404.267,-471.696 414.276,-475.17 408.618,-466.212 404.267,-471.696"/>
</g>
<!-- 286B&#45;&gt;162 -->
<g id="edge87" class="edge"><title>286B&#45;&gt;162</title>
<path fill="none" stroke="black" d="M362.165,-444.834C376.336,-475.154 405.531,-537.624 422.226,-573.345"/>
<polygon fill="black" stroke="black" points="419.175,-575.084 426.58,-582.662 425.517,-572.121 419.175,-575.084"/>
</g>
<!-- 286B&#45;&gt;286A -->
<g id="edge89" class="edge"><title>286B&#45;&gt;286A</title>
<path fill="none" stroke="black" d="M364.174,-444.562C374.538,-461.029 391.839,-485.805 411.506,-502.883 426.355,-515.776 445.28,-526.757 461.452,-534.879"/>
<polygon fill="black" stroke="black" points="460.08,-538.103 470.604,-539.323 463.138,-531.806 460.08,-538.103"/>
</g>
<!-- 273 -->
<g id="node55" class="node"><title>273</title>
<ellipse fill="lightgrey" stroke="black" cx="1034.58" cy="-1057.17" rx="27" ry="18"/>
<text text-anchor="middle" x="1034.58" y="-1053.47" font-family="Times,serif" font-size="14.00">273</text>
</g>
<!-- 273&#45;&gt;170 -->
<g id="edge90" class="edge"><title>273&#45;&gt;170</title>
<path fill="none" stroke="black" d="M1017.7,-1042.97C956.34,-991.351 744.915,-813.491 672.283,-752.39"/>
<polygon fill="black" stroke="black" points="674.426,-749.619 664.52,-745.859 669.919,-754.975 674.426,-749.619"/>
</g>
<!-- 261N -->
<g id="node56" class="node"><title>261N</title>
<ellipse fill="lightgrey" stroke="black" cx="32.1418" cy="-336.962" rx="31.3957" ry="18"/>
<text text-anchor="middle" x="32.1418" y="-333.262" font-family="Times,serif" font-size="14.00">261N</text>
</g>
<!-- 261N&#45;&gt;161 -->
<g id="edge91" class="edge"><title>261N&#45;&gt;161</title>
<path fill="none" stroke="black" d="M48.7617,-352.316C79.6637,-380.445 148.669,-441.313 212.884,-484.441 248.295,-508.224 291.841,-530.991 320.797,-545.303"/>
<polygon fill="black" stroke="black" points="319.505,-548.568 330.025,-549.822 322.583,-542.281 319.505,-548.568"/>
</g>
<!-- 284A -->
<g id="node57" class="node"><title>284A</title>
<ellipse fill="lightgrey" stroke="black" cx="729.539" cy="-623.422" rx="31.3957" ry="18"/>
<text text-anchor="middle" x="729.539" y="-619.722" font-family="Times,serif" font-size="14.00">284A</text>
</g>
<!-- 284A&#45;&gt;61BL -->
<g id="edge93" class="edge"><title>284A&#45;&gt;61BL</title>
<path fill="none" stroke="black" d="M719.792,-606.008C709.838,-587.998 694.141,-558.959 681.82,-533.239 676.775,-522.707 671.606,-510.932 667.244,-500.653"/>
<polygon fill="black" stroke="black" points="670.435,-499.213 663.338,-491.347 663.98,-501.922 670.435,-499.213"/>
</g>
<!-- 284A&#45;&gt;61B -->
<g id="edge92" class="edge"><title>284A&#45;&gt;61B</title>
<path fill="none" stroke="black" d="M709.266,-609.548C692.958,-598.387 669.881,-582.593 651.906,-570.291"/>
<polygon fill="black" stroke="black" points="653.773,-567.328 643.544,-564.568 649.819,-573.104 653.773,-567.328"/>
</g>
<!-- 284B -->
<g id="node58" class="node"><title>284B</title>
<ellipse fill="lightgrey" stroke="black" cx="757.745" cy="-34.9987" rx="30.5947" ry="18"/>
<text text-anchor="middle" x="757.745" y="-31.2987" font-family="Times,serif" font-size="14.00">284B</text>
</g>
<!-- 284B&#45;&gt;184 -->
<g id="edge94" class="edge"><title>284B&#45;&gt;184</title>
<path fill="none" stroke="black" d="M755.524,-53.379C748.413,-112.224 726.173,-296.264 717.591,-367.288"/>
<polygon fill="black" stroke="black" points="714.106,-366.952 716.381,-377.3 721.055,-367.792 714.106,-366.952"/>
</g>
<!-- 252 -->
<g id="node59" class="node"><title>252</title>
<ellipse fill="lightgrey" stroke="black" cx="552.948" cy="-18" rx="27" ry="18"/>
<text text-anchor="middle" x="552.948" y="-14.3" font-family="Times,serif" font-size="14.00">252</text>
</g>
<!-- 252&#45;&gt;152 -->
<g id="edge95" class="edge"><title>252&#45;&gt;152</title>
<path fill="none" stroke="black" d="M556.485,-36.0494C563.726,-72.9989 580.283,-157.487 588.936,-201.645"/>
<polygon fill="black" stroke="black" points="585.548,-202.556 590.906,-211.696 592.417,-201.21 585.548,-202.556"/>
</g>
</g>
</svg>
